<svg xmlns="http://www.w3.org/2000/svg" xmlns:xlink="http://www.w3.org/1999/xlink" viewBox="0 0 64 64"><defs><style>.cls-1{fill:url(#linear-gradient);}.cls-2{fill:url(#linear-gradient-2);}.cls-3{fill:url(#linear-gradient-3);}</style><linearGradient id="linear-gradient" x1="3" y1="32.01" x2="61.01" y2="32.01" gradientUnits="userSpaceOnUse"><stop offset="0" stop-color="#ffe500"/><stop offset="1" stop-color="#fcb415"/></linearGradient><linearGradient id="linear-gradient-2" x1="28.42" y1="28.75" x2="35.58" y2="28.75" gradientUnits="userSpaceOnUse"><stop offset="0" stop-color="#141c2c"/><stop offset="0.84" stop-color="#090d14"/><stop offset="1" stop-color="#070a0f"/></linearGradient><linearGradient id="linear-gradient-3" x1="28.46" y1="47.9" x2="35.54" y2="47.9" xlink:href="#linear-gradient-2"/></defs><g id="Layer_14" data-name="Layer 14"><path class="cls-1" d="M60.57,52.77,34.75,8.05a3.19,3.19,0,0,0-5.5,0L3.43,52.77a3.18,3.18,0,0,0,2.75,4.77H57.82A3.2,3.2,0,0,0,60.57,52.77Z"/><rect class="cls-2" x="28.42" y="16.02" width="7.16" height="25.47" rx="3.13"/><path class="cls-3" d="M32,44.32a3.58,3.58,0,0,0,0,7.16A3.58,3.58,0,0,0,32,44.32Z"/></g></svg>