<svg width="21" height="21" viewBox="0 0 21 21" fill="none" xmlns="http://www.w3.org/2000/svg">
<path d="M8.4 15.7419C10.1907 15.7419 11.8186 15.107 13.0884 14.0326L18.786 19.7302C18.9163 19.8605 19.0791 19.9256 19.2581 19.9256C19.4372 19.9256 19.6 19.8605 19.7302 19.7302C19.9907 19.4698 19.9907 19.0465 19.7302 18.786L14.0326 13.0884C15.0907 11.8186 15.7419 10.1744 15.7419 8.4C15.7419 4.34651 12.4535 1.05814 8.4 1.05814C4.36279 1.05814 1.05814 4.36279 1.05814 8.4C1.05814 12.4535 4.36279 15.7419 8.4 15.7419ZM8.4 2.39302C11.7209 2.39302 14.407 5.09535 14.407 8.4C14.407 11.7209 11.7209 14.407 8.4 14.407C5.07907 14.407 2.39302 11.7046 2.39302 8.4C2.39302 5.09535 5.09535 2.39302 8.4 2.39302Z" fill="#616161"/>
</svg>
